<svg id="Capa_1" enable-background="new 0 0 512 512" height="512" viewBox="0 0 512 512" width="512" xmlns="http://www.w3.org/2000/svg" xmlns:xlink="http://www.w3.org/1999/xlink"><linearGradient id="SVGID_1_" gradientUnits="userSpaceOnUse" x1="256" x2="256" y1="484.735" y2="27.265"><stop offset="0" stop-color="#fd3a84"/><stop offset="1" stop-color="#ffa68d"/></linearGradient><linearGradient id="SVGID_2_" gradientUnits="userSpaceOnUse" x1="256" x2="256" y1="387.265" y2="147.265"><stop offset="0" stop-color="#ffc2cc"/><stop offset="1" stop-color="#fff2f4"/></linearGradient><g id="Love_2_"><g><g><path d="m436 447.265c-11.719 0-22.734-4.526-30.967-12.349 66.68-42.261 106.967-109.438 106.967-182.651 0-124.072-115.404-225-256-225s-256 100.927-256 225 115.404 225 256 225c24.404 0 48.457-3.018 71.631-8.994 18.135 12.686 40.049 16.465 59.766 16.465 28.066 0 51.621-7.661 53.35-8.247 6.973-2.314 11.25-9.36 10.049-16.626-1.173-7.266-7.442-12.598-14.796-12.598z" fill="url(#SVGID_1_)"/></g></g><g><g><path d="m316 147.265c-28.242 0-48.223 13.022-60 23.921-11.777-10.898-31.758-23.921-60-23.921-42.07 0-75 37.339-75 85.005 0 32.505 16.641 95.64 128.115 153.311 4.325 2.281 9.578 2.211 13.77 0 111.474-57.672 128.115-120.807 128.115-153.312 0-47.666-32.93-85.004-75-85.004z" fill="url(#SVGID_2_)"/></g></g></g></svg>